<svg width="209" height="241" viewBox="0 0 209 241" fill="none" xmlns="http://www.w3.org/2000/svg">
<rect width="209" height="241" fill="#D9D9D9"/>
<path d="M100.853 111.846C102.392 113.381 104.889 113.381 106.427 111.846L126.115 92.2031C127.653 90.6685 127.653 88.1763 126.115 86.6417C124.577 85.1071 122.079 85.1071 120.541 86.6417L107.572 99.5937L107.572 61.9286C107.572 59.7556 105.812 58 103.634 58C101.456 58 99.6968 59.7556 99.6968 61.9286L99.6968 99.5815L86.7277 86.654C85.1896 85.1194 82.6917 85.1194 81.1537 86.654C79.6156 88.1886 79.6156 90.6808 81.1537 92.2154L100.841 111.858L100.853 111.846Z" fill="#442358"/>
<path d="M50.1332 48H45.4292L39.1652 38.544V48H34.4612V31.08H39.1652L45.4292 40.656V31.08H50.1332V48ZM63.5168 45.24H57.5168L56.6048 48H51.6608L57.8288 31.08H63.2528L69.3968 48H64.4288L63.5168 45.24ZM62.3408 41.64L60.5168 36.168L58.7168 41.64H62.3408ZM77.3139 48.168C75.3459 48.168 73.7299 47.704 72.4659 46.776C71.2019 45.832 70.5219 44.488 70.4259 42.744H75.4419C75.4899 43.336 75.6659 43.768 75.9699 44.04C76.2739 44.312 76.6659 44.448 77.1459 44.448C77.5779 44.448 77.9299 44.344 78.2019 44.136C78.4899 43.912 78.6339 43.608 78.6339 43.224C78.6339 42.728 78.4019 42.344 77.9379 42.072C77.4739 41.8 76.7219 41.496 75.6819 41.16C74.5779 40.792 73.6819 40.44 72.9939 40.104C72.3219 39.752 71.7299 39.248 71.2179 38.592C70.7219 37.92 70.4739 37.048 70.4739 35.976C70.4739 34.888 70.7459 33.96 71.2899 33.192C71.8339 32.408 72.5859 31.816 73.5459 31.416C74.5059 31.016 75.5939 30.816 76.8099 30.816C78.7779 30.816 80.3459 31.28 81.5139 32.208C82.6979 33.12 83.3299 34.408 83.4099 36.072H78.2979C78.2819 35.56 78.1219 35.176 77.8179 34.92C77.5299 34.664 77.1539 34.536 76.6899 34.536C76.3379 34.536 76.0499 34.64 75.8259 34.848C75.6019 35.056 75.4899 35.352 75.4899 35.736C75.4899 36.056 75.6099 36.336 75.8499 36.576C76.1059 36.8 76.4179 37 76.7859 37.176C77.1539 37.336 77.6979 37.544 78.4179 37.8C79.4899 38.168 80.3699 38.536 81.0579 38.904C81.7619 39.256 82.3619 39.76 82.8579 40.416C83.3699 41.056 83.6259 41.872 83.6259 42.864C83.6259 43.872 83.3699 44.776 82.8579 45.576C82.3619 46.376 81.6339 47.008 80.6739 47.472C79.7299 47.936 78.6099 48.168 77.3139 48.168ZM98.5568 31.08V34.824H94.0448V48H89.3408V34.824H84.8768V31.08H98.5568ZM111.001 45.24H105.001L104.089 48H99.1451L105.313 31.08H110.737L116.881 48H111.913L111.001 45.24ZM109.825 41.64L108.001 36.168L106.201 41.64H109.825ZM134.878 31.08L129.046 48H123.022L117.166 31.08H122.206L126.046 43.296L129.862 31.08H134.878ZM141.048 34.848V37.608H146.448V41.184H141.048V44.232H147.168V48H136.344V31.08H147.168V34.848H141.048ZM165.164 48H160.46L154.196 38.544V48H149.492V31.08H154.196L160.46 40.656V31.08H165.164V48ZM172.548 31.08V48H167.844V31.08H172.548ZM173.148 27.744L167.148 30.096V26.904L173.148 24.192V27.744Z" fill="#AB004A"/>
<path d="M87.1986 122.08L81.3666 139H75.3426L69.4866 122.08H74.5266L78.3666 134.296L82.1826 122.08H87.1986ZM93.3683 121.24V139H88.6643V121.24H93.3683ZM102.311 139.168C100.967 139.168 99.7591 138.888 98.6871 138.328C97.6311 137.768 96.7991 136.968 96.1911 135.928C95.5831 134.888 95.2791 133.664 95.2791 132.256C95.2791 130.864 95.5831 129.648 96.1911 128.608C96.8151 127.568 97.6551 126.768 98.7111 126.208C99.7831 125.648 100.991 125.368 102.335 125.368C103.679 125.368 104.879 125.648 105.935 126.208C107.007 126.768 107.847 127.568 108.455 128.608C109.079 129.648 109.391 130.864 109.391 132.256C109.391 133.648 109.079 134.872 108.455 135.928C107.847 136.968 107.007 137.768 105.935 138.328C104.863 138.888 103.655 139.168 102.311 139.168ZM102.311 135.088C102.967 135.088 103.511 134.848 103.943 134.368C104.391 133.872 104.615 133.168 104.615 132.256C104.615 131.344 104.391 130.648 103.943 130.168C103.511 129.688 102.975 129.448 102.335 129.448C101.695 129.448 101.159 129.688 100.727 130.168C100.295 130.648 100.079 131.344 100.079 132.256C100.079 133.184 100.287 133.888 100.703 134.368C101.119 134.848 101.655 135.088 102.311 135.088ZM115.769 135.088H121.505V139H110.585V135.28L115.937 129.448H110.633V125.536H121.313V129.256L115.769 135.088ZM119.993 122.776L116.177 124.624L112.313 122.776V119.632L116.177 121.72L119.993 119.632V122.776ZM125.845 124.288C125.013 124.288 124.341 124.064 123.829 123.616C123.333 123.152 123.085 122.576 123.085 121.888C123.085 121.184 123.333 120.6 123.829 120.136C124.341 119.672 125.013 119.44 125.845 119.44C126.661 119.44 127.317 119.672 127.813 120.136C128.325 120.6 128.581 121.184 128.581 121.888C128.581 122.576 128.325 123.152 127.813 123.616C127.317 124.064 126.661 124.288 125.845 124.288ZM128.173 125.536V139H123.469V125.536H128.173ZM138.796 134.992V139H136.756C133.316 139 131.596 137.296 131.596 133.888V129.448H129.94V125.536H131.596V122.272H136.324V125.536H138.772V129.448H136.324V133.96C136.324 134.328 136.404 134.592 136.564 134.752C136.74 134.912 137.028 134.992 137.428 134.992H138.796ZM54.2511 163.408C54.6191 162.784 55.1391 162.288 55.8111 161.92C56.4831 161.552 57.2751 161.368 58.1871 161.368C59.2591 161.368 60.2271 161.648 61.0911 162.208C61.9711 162.768 62.6591 163.568 63.1551 164.608C63.6671 165.648 63.9231 166.864 63.9231 168.256C63.9231 169.648 63.6671 170.872 63.1551 171.928C62.6591 172.968 61.9711 173.768 61.0911 174.328C60.2271 174.888 59.2591 175.168 58.1871 175.168C57.2751 175.168 56.4831 174.984 55.8111 174.616C55.1551 174.248 54.6351 173.752 54.2511 173.128V181.432H49.5471V161.536H54.2511V163.408ZM59.1471 168.256C59.1471 167.376 58.9071 166.696 58.4271 166.216C57.9631 165.72 57.3871 165.472 56.6991 165.472C56.0111 165.472 55.4271 165.72 54.9471 166.216C54.4831 166.712 54.2511 167.392 54.2511 168.256C54.2511 169.136 54.4831 169.824 54.9471 170.32C55.4271 170.816 56.0111 171.064 56.6991 171.064C57.3871 171.064 57.9631 170.816 58.4271 170.32C58.9071 169.808 59.1471 169.12 59.1471 168.256ZM70.5636 163.912C71.0916 163.144 71.7316 162.536 72.4836 162.088C73.2356 161.64 74.0436 161.416 74.9076 161.416V166.432H73.5876C72.5636 166.432 71.8036 166.632 71.3076 167.032C70.8116 167.432 70.5636 168.128 70.5636 169.12V175H65.8596V161.536H70.5636V163.912ZM82.858 175.168C81.514 175.168 80.306 174.888 79.234 174.328C78.178 173.768 77.346 172.968 76.738 171.928C76.13 170.888 75.826 169.664 75.826 168.256C75.826 166.864 76.13 165.648 76.738 164.608C77.362 163.568 78.202 162.768 79.258 162.208C80.33 161.648 81.538 161.368 82.882 161.368C84.226 161.368 85.426 161.648 86.482 162.208C87.554 162.768 88.394 163.568 89.002 164.608C89.626 165.648 89.938 166.864 89.938 168.256C89.938 169.648 89.626 170.872 89.002 171.928C88.394 172.968 87.554 173.768 86.482 174.328C85.41 174.888 84.202 175.168 82.858 175.168ZM82.858 171.088C83.514 171.088 84.058 170.848 84.49 170.368C84.938 169.872 85.162 169.168 85.162 168.256C85.162 167.344 84.938 166.648 84.49 166.168C84.058 165.688 83.522 165.448 82.882 165.448C82.242 165.448 81.706 165.688 81.274 166.168C80.842 166.648 80.626 167.344 80.626 168.256C80.626 169.184 80.834 169.888 81.25 170.368C81.666 170.848 82.202 171.088 82.858 171.088ZM99.1238 165.448H97.0118V175H92.2838V165.448H90.8198V161.536H92.2838V161.416C92.2838 159.688 92.7878 158.368 93.7958 157.456C94.8198 156.528 96.2838 156.064 98.1878 156.064C98.5718 156.064 98.8678 156.072 99.0758 156.088V160.096C98.9478 160.08 98.7718 160.072 98.5478 160.072C98.0358 160.072 97.6598 160.192 97.4198 160.432C97.1798 160.656 97.0438 161.024 97.0118 161.536H99.1238V165.448ZM103.181 160.288C102.349 160.288 101.677 160.064 101.165 159.616C100.669 159.152 100.421 158.576 100.421 157.888C100.421 157.184 100.669 156.6 101.165 156.136C101.677 155.672 102.349 155.44 103.181 155.44C103.997 155.44 104.653 155.672 105.149 156.136C105.661 156.6 105.917 157.184 105.917 157.888C105.917 158.576 105.661 159.152 105.149 159.616C104.653 160.064 103.997 160.288 103.181 160.288ZM105.509 161.536V175H100.805V161.536H105.509ZM112.892 157.24V175H108.188V157.24H112.892ZM121.835 175.168C120.491 175.168 119.283 174.888 118.211 174.328C117.155 173.768 116.323 172.968 115.715 171.928C115.107 170.888 114.803 169.664 114.803 168.256C114.803 166.864 115.107 165.648 115.715 164.608C116.339 163.568 117.179 162.768 118.235 162.208C119.307 161.648 120.515 161.368 121.859 161.368C123.203 161.368 124.403 161.648 125.459 162.208C126.531 162.768 127.371 163.568 127.979 164.608C128.603 165.648 128.915 166.864 128.915 168.256C128.915 169.648 128.603 170.872 127.979 171.928C127.371 172.968 126.531 173.768 125.459 174.328C124.387 174.888 123.179 175.168 121.835 175.168ZM121.835 171.088C122.491 171.088 123.035 170.848 123.467 170.368C123.915 169.872 124.139 169.168 124.139 168.256C124.139 167.344 123.915 166.648 123.467 166.168C123.035 165.688 122.499 165.448 121.859 165.448C121.219 165.448 120.683 165.688 120.251 166.168C119.819 166.648 119.603 167.344 119.603 168.256C119.603 169.184 119.811 169.888 120.227 170.368C120.643 170.848 121.179 171.088 121.835 171.088ZM137.284 170.56L139.804 161.536H144.82L140.188 175H134.332L129.7 161.536H134.716L137.284 170.56ZM160.91 161.536L152.366 181.408H147.254L150.47 174.424L144.95 161.536H150.182L153.014 169.168L155.75 161.536H160.91ZM155.87 158.272L149.87 160.624V157.432L155.87 154.72V158.272ZM61.5533 211.168C60.2093 211.168 59.0013 210.888 57.9293 210.328C56.8733 209.768 56.0413 208.968 55.4333 207.928C54.8253 206.888 54.5213 205.664 54.5213 204.256C54.5213 202.864 54.8253 201.648 55.4333 200.608C56.0573 199.568 56.8973 198.768 57.9533 198.208C59.0253 197.648 60.2333 197.368 61.5773 197.368C62.9213 197.368 64.1213 197.648 65.1773 198.208C66.2493 198.768 67.0893 199.568 67.6973 200.608C68.3213 201.648 68.6333 202.864 68.6333 204.256C68.6333 205.648 68.3213 206.872 67.6973 207.928C67.0893 208.968 66.2493 209.768 65.1773 210.328C64.1053 210.888 62.8973 211.168 61.5533 211.168ZM61.5533 207.088C62.2093 207.088 62.7533 206.848 63.1853 206.368C63.6333 205.872 63.8573 205.168 63.8573 204.256C63.8573 203.344 63.6333 202.648 63.1853 202.168C62.7533 201.688 62.2173 201.448 61.5773 201.448C60.9373 201.448 60.4013 201.688 59.9693 202.168C59.5373 202.648 59.3213 203.344 59.3213 204.256C59.3213 205.184 59.5293 205.888 59.9453 206.368C60.3613 206.848 60.8973 207.088 61.5533 207.088ZM75.2511 199.408C75.6191 198.768 76.1391 198.272 76.8111 197.92C77.4831 197.552 78.2751 197.368 79.1871 197.368C80.2591 197.368 81.2271 197.648 82.0911 198.208C82.9711 198.768 83.6591 199.568 84.1551 200.608C84.6671 201.648 84.9231 202.864 84.9231 204.256C84.9231 205.648 84.6671 206.872 84.1551 207.928C83.6591 208.968 82.9711 209.768 82.0911 210.328C81.2271 210.888 80.2591 211.168 79.1871 211.168C78.2751 211.168 77.4831 210.992 76.8111 210.64C76.1391 210.272 75.6191 209.768 75.2511 209.128V211H70.5471V193.24H75.2511V199.408ZM80.1471 204.256C80.1471 203.376 79.9071 202.696 79.4271 202.216C78.9631 201.72 78.3871 201.472 77.6991 201.472C77.0111 201.472 76.4271 201.72 75.9471 202.216C75.4831 202.712 75.2511 203.392 75.2511 204.256C75.2511 205.136 75.4831 205.824 75.9471 206.32C76.4271 206.816 77.0111 207.064 77.6991 207.064C78.3871 207.064 78.9631 206.816 79.4271 206.32C79.9071 205.808 80.1471 205.12 80.1471 204.256ZM91.5636 199.912C92.0916 199.144 92.7316 198.536 93.4836 198.088C94.2356 197.64 95.0436 197.416 95.9076 197.416V202.432H94.5876C93.5636 202.432 92.8036 202.632 92.3076 203.032C91.8116 203.432 91.5636 204.128 91.5636 205.12V211H86.8596V197.536H91.5636V199.912ZM96.826 204.256C96.826 202.864 97.074 201.648 97.57 200.608C98.082 199.568 98.77 198.768 99.634 198.208C100.514 197.648 101.49 197.368 102.562 197.368C103.49 197.368 104.29 197.552 104.962 197.92C105.634 198.288 106.154 198.784 106.522 199.408V197.536H111.226V211H106.522V209.128C106.154 209.752 105.626 210.248 104.938 210.616C104.266 210.984 103.474 211.168 102.562 211.168C101.49 211.168 100.514 210.888 99.634 210.328C98.77 209.768 98.082 208.968 97.57 207.928C97.074 206.872 96.826 205.648 96.826 204.256ZM106.522 204.256C106.522 203.392 106.282 202.712 105.802 202.216C105.338 201.72 104.762 201.472 104.074 201.472C103.37 201.472 102.786 201.72 102.322 202.216C101.858 202.696 101.626 203.376 101.626 204.256C101.626 205.12 101.858 205.808 102.322 206.32C102.786 206.816 103.37 207.064 104.074 207.064C104.762 207.064 105.338 206.816 105.802 206.32C106.282 205.824 106.522 205.136 106.522 204.256ZM107.458 194.272L101.458 196.624V193.432L107.458 190.72V194.272ZM118.371 207.088H124.107V211H113.187V207.28L118.539 201.448H113.235V197.536H123.915V201.256L118.371 207.088ZM138.935 204.112C138.935 204.48 138.911 204.848 138.863 205.216H129.959C130.007 205.952 130.207 206.504 130.559 206.872C130.927 207.224 131.391 207.4 131.951 207.4C132.735 207.4 133.295 207.048 133.631 206.344H138.647C138.439 207.272 138.031 208.104 137.423 208.84C136.831 209.56 136.079 210.128 135.167 210.544C134.255 210.96 133.247 211.168 132.143 211.168C130.815 211.168 129.631 210.888 128.591 210.328C127.567 209.768 126.759 208.968 126.167 207.928C125.591 206.888 125.303 205.664 125.303 204.256C125.303 202.848 125.591 201.632 126.167 200.608C126.743 199.568 127.543 198.768 128.567 198.208C129.607 197.648 130.799 197.368 132.143 197.368C133.471 197.368 134.647 197.64 135.671 198.184C136.695 198.728 137.495 199.512 138.071 200.536C138.647 201.544 138.935 202.736 138.935 204.112ZM134.135 202.936C134.135 202.36 133.943 201.912 133.559 201.592C133.175 201.256 132.695 201.088 132.119 201.088C131.543 201.088 131.071 201.248 130.703 201.568C130.335 201.872 130.095 202.328 129.983 202.936H134.135ZM149.284 211L145.564 205.48V211H140.86V193.24H145.564V202.816L149.284 197.536H154.924L149.62 204.304L155.02 211H149.284Z" fill="#AB004A"/>
</svg>
