<svg width="695" height="652" viewBox="0 0 695 652" fill="none" xmlns="http://www.w3.org/2000/svg">
<path d="M597.135 115.83C651.501 176.642 689.342 247.561 694.393 323.619C699.53 399.762 671.877 480.873 617.512 543.398C563.147 605.923 482.07 649.862 398.767 651.917C315.55 654.059 230.192 614.402 149.886 551.878C69.6651 489.353 -5.5043 403.959 0.317477 324.39C6.22487 244.906 93.0379 171.161 173.344 110.349C253.565 49.5369 327.279 1.65829 399.537 3.0287C471.882 4.31346 542.77 55.0186 597.135 115.83Z" fill="#442358"/>
<g clip-path="url(#clip0_56_95)">
<path d="M227.449 100.368L222.913 124.118L245.528 130.477L242.718 105.12L227.449 100.368Z" fill="#A0616A"/>
<path d="M497.763 269.523H264.525C238.076 269.523 216.635 290.906 216.635 317.284V542.839C216.635 569.217 238.076 590.6 264.525 590.6H497.763C524.212 590.6 545.654 569.217 545.654 542.839V317.284C545.654 290.906 524.212 269.523 497.763 269.523Z" fill="white"/>
<path d="M497.763 591.73H264.525C237.493 591.73 215.5 569.798 215.5 542.839V317.284C215.5 290.325 237.493 268.392 264.525 268.392H497.763C524.796 268.392 546.788 290.325 546.788 317.284V542.839C546.788 569.798 524.795 591.73 497.763 591.73ZM264.525 270.654C238.743 270.654 217.769 291.572 217.769 317.284V542.839C217.769 568.551 238.743 589.468 264.525 589.468H497.763C523.545 589.468 544.52 568.551 544.52 542.839V317.284C544.52 291.572 523.545 270.654 497.763 270.654L264.525 270.654Z" fill="#3F3D56"/>
<path d="M514.658 367.309H420.909C416.933 367.309 413.698 364.082 413.698 360.117C413.698 356.151 416.933 352.925 420.909 352.925H514.658C518.634 352.925 521.87 356.151 521.87 360.117C521.87 364.082 518.635 367.309 514.658 367.309Z" fill="#6C63FF"/>
<path d="M426.709 423.866H335.58C333.283 423.866 331.414 422.002 331.414 419.711C331.414 417.419 333.283 415.556 335.58 415.556H426.709C429.006 415.556 430.875 417.419 430.875 419.711C430.875 422.002 429.006 423.866 426.709 423.866Z" fill="#6C63FF"/>
<path d="M297.908 284.97H245.88C245.686 284.97 245.529 285.127 245.529 285.32V291.361C245.529 291.555 245.686 291.712 245.88 291.712H297.908C298.102 291.712 298.26 291.555 298.26 291.361V285.32C298.26 285.127 298.102 284.97 297.908 284.97Z" fill="#6C63FF"/>
<path d="M473.153 291.712C476.14 291.712 478.561 289.297 478.561 286.318C478.561 283.339 476.14 280.924 473.153 280.924C470.166 280.924 467.744 283.339 467.744 286.318C467.744 289.297 470.166 291.712 473.153 291.712Z" fill="#3F3D56"/>
<path d="M488.026 291.712C491.012 291.712 493.434 289.297 493.434 286.318C493.434 283.339 491.012 280.924 488.026 280.924C485.039 280.924 482.617 283.339 482.617 286.318C482.617 289.297 485.039 291.712 488.026 291.712Z" fill="#3F3D56"/>
<path d="M502.899 291.712C505.885 291.712 508.307 289.297 508.307 286.318C508.307 283.339 505.885 280.924 502.899 280.924C499.912 280.924 497.49 283.339 497.49 286.318C497.49 289.297 499.912 291.712 502.899 291.712Z" fill="#3F3D56"/>
<path d="M263.958 446.109C263.958 446.856 264.559 447.455 265.307 447.455H496.981C497.73 447.455 498.331 446.856 498.331 446.109C498.331 445.363 497.73 444.764 496.981 444.764H265.307C264.559 444.764 263.958 445.363 263.958 446.109Z" fill="#3F3D56"/>
<path d="M334.614 114.135C339.546 110.071 345.647 109.314 348.24 112.445C350.833 115.576 348.937 121.408 344.002 125.473C342.053 127.124 339.736 128.285 337.245 128.86L316.13 145.817L308.362 135.766L330.003 120.116C331.039 117.783 332.62 115.733 334.614 114.135Z" fill="#A0616A"/>
<path d="M212.568 152.396C212.557 151.646 212.564 145.105 217.42 140.97C222.998 136.221 230.87 138.143 233.63 138.817C240.008 140.375 240.531 143.103 246.52 145.907C257.725 151.151 243.685 148.467 250.353 146.785C252.661 146.203 285.862 143.907 294.127 138.834C310.2 128.968 321.152 122.985 321.152 122.985L328.311 137.265C328.311 137.265 317.959 151.621 303.388 162.256C288.443 173.166 280.97 178.621 269.613 180.728C268.635 180.91 244.582 185.005 225.209 170.571C220.79 167.278 212.694 161.246 212.568 152.396Z" fill="#E6E6E6"/>
<path d="M234.777 116.078C248.551 116.078 259.717 104.942 259.717 91.2052C259.717 77.4681 248.551 66.3319 234.777 66.3319C221.002 66.3319 209.836 77.4681 209.836 91.2052C209.836 104.942 221.002 116.078 234.777 116.078Z" fill="#A0616A"/>
<path d="M430.103 258.314L404.417 232.093L391.158 245.886L410.295 271.027L429.276 273.192L430.103 258.314Z" fill="#A0616A"/>
<path d="M283.438 209.143C284.94 209.268 289.714 210.222 294.277 207.718C297.392 206.009 298.989 203.468 299.528 202.66C306.221 192.636 331.908 177.004 354.961 176.043C360.182 175.825 363.618 176.428 366.742 178.052C371.171 180.354 372.939 183.652 378.559 191.378C381.633 195.604 385.035 199.585 388.146 203.784C406.361 228.368 413.266 230.298 412.561 238.179C411.777 246.923 402.321 255.219 396.036 254.262C393.462 253.869 392.466 252.084 389.027 248.471C378.944 237.876 374.772 239.834 367.593 231.719C359.212 222.244 360.309 214.389 355.937 214.085C351.882 213.804 350.158 220.505 341.501 229.408C337.54 233.482 334.719 235.351 326.125 241.296C292.659 264.451 292.125 266.078 285.371 267.925C282.416 268.733 261.443 274.467 253.972 265.341C242.28 251.061 269.901 208.022 283.438 209.143Z" fill="#2F2E41"/>
<path d="M422.25 264.239C424.139 263.393 426.348 262.404 427.059 260.129C427.539 258.59 427.262 256.692 426.269 255.381C425.122 253.868 423.424 253.668 423.493 253.4C423.597 252.993 427.611 253.152 432.018 254.706C432.849 254.999 436.616 256.371 441.408 260.102C445.247 263.091 444.73 263.69 447.138 265.414C454.528 270.705 461.459 266.535 465.457 271.496C467.001 273.411 467.659 276.13 467.009 278.328C465.705 282.743 459.363 284.262 455.896 285.046C447.548 286.935 441.229 285.393 434.631 284.284C412.192 280.513 399.585 283.948 397.897 278.763C397.578 277.782 398.097 277.866 399.827 270.665C401.534 263.558 401.478 261.606 402.933 261.037C405.122 260.181 406.592 264.077 412.107 265.411C416.993 266.593 421.026 264.787 422.25 264.239Z" fill="#2F2E41"/>
<path d="M384.438 344.093L377.949 308.012L359.211 312L360.89 343.52L375.377 355.941L384.438 344.093Z" fill="#A0616A"/>
<path d="M290.766 221.271C291.939 222.216 295.352 225.678 300.538 226.162C304.077 226.492 306.829 225.284 307.73 224.918C318.912 220.371 348.969 221.822 368.586 233.937C373.028 236.68 375.532 239.104 377.202 242.196C379.571 246.582 379.177 250.301 379.477 259.841C379.641 265.06 380.214 270.259 380.424 275.476C381.654 306.018 386.282 311.482 381.26 317.608C375.688 324.405 363.193 325.974 358.531 321.662C356.622 319.896 356.803 317.861 355.992 312.945C353.614 298.532 349.06 297.815 347.689 287.08C346.089 274.547 351.42 268.661 347.973 265.961C344.776 263.458 339.576 268.038 327.4 270.556C321.829 271.709 318.443 271.675 307.984 271.782C267.255 272.2 265.896 273.247 259.268 270.993C256.368 270.006 235.785 263.006 234.741 251.271C233.108 232.907 280.196 212.762 290.766 221.271Z" fill="#2F2E41"/>
<path d="M374.604 344.598C376.644 344.956 379.028 345.374 380.897 343.89C382.162 342.886 383.001 341.16 382.917 339.519C382.82 337.624 381.528 336.509 381.735 336.326C382.051 336.047 385.283 338.427 388.054 342.18C388.577 342.888 390.921 346.133 392.786 351.904C394.279 356.527 393.514 356.734 394.536 359.508C397.672 368.024 405.755 368.455 406.27 374.8C406.469 377.249 405.482 379.867 403.707 381.322C400.143 384.244 394.039 381.95 390.729 380.657C382.758 377.545 378.398 372.731 373.562 368.118C357.118 352.432 344.752 348.213 346.275 342.978C346.564 341.987 346.946 342.347 352.432 337.358C357.846 332.434 358.899 330.787 360.423 331.131C362.717 331.648 361.739 335.695 365.551 339.887C368.929 343.602 373.283 344.366 374.604 344.598Z" fill="#2F2E41"/>
<path d="M238.177 95.9603C239.148 92.4964 237.928 91.2341 239.171 89.6793C239.171 89.6792 239.672 89.0536 244.143 87.3652C242.824 79.7306 243.812 78.4397 243.812 78.4397C244.951 76.9518 247.231 76.5921 248.784 76.7868C252.068 77.1984 252.649 80.159 254.751 80.0926C257.653 80.0008 261.135 74.206 260.054 69.1835C259.173 65.0865 255.372 62.044 254.419 62.5719C253.474 63.0954 250.074 60.7871 248.784 61.2496C247.903 61.5655 243.758 61.1453 242.818 61.5802C241.791 62.0552 238.851 65.0125 238.57 64.6399C236.617 62.0506 236.658 61.1465 235.525 60.5885C233.517 59.5996 231.334 61.4273 227.57 63.2331C219.825 66.9485 217.557 64.7322 213.979 67.8612C212.172 69.4418 211.203 72.4626 209.339 78.4397C206.731 86.7985 205.428 90.978 206.687 94.9685C207.971 99.0382 209.862 98.1524 212.654 103.894C215.761 110.286 214.69 114.001 217.626 115.464C219.895 116.596 223.541 115.876 224.918 113.811C227.275 110.277 221.183 105.497 223.261 99.9272C224.536 96.5084 228.471 93.9161 230.885 94.638C233.613 95.4542 233.814 100.333 235.525 100.258C236.99 100.193 238.008 96.5639 238.177 95.9603Z" fill="#2F2E41"/>
<path d="M219.283 119.762C224.387 114.055 245.176 119.962 247.127 129.018C247.929 132.743 244.967 134.316 245.801 138.605C247.021 144.878 253.931 144.45 259.06 150.836C266.341 159.902 258.84 168.764 267.015 183.894C268.762 187.127 270.234 189.852 273.313 192.489C280.378 198.54 286.953 196.465 290.55 202.076C293.24 206.271 292.135 211.443 291.876 212.654C290.814 217.621 287.937 218.832 285.909 222.902C282.536 229.674 286.355 234.646 286.572 242.737C286.843 252.86 281.449 266.893 270.661 271.497C258.542 276.67 243.924 268.102 236.851 259.596C232.63 254.52 231.405 249.838 229.559 244.059C221.306 218.23 216.644 220.566 210.333 200.092C203.119 176.686 201.7 149.265 210.333 140.588C211.477 139.438 214.626 136.78 216.631 131.993C219.329 125.552 216.998 122.317 219.283 119.762Z" fill="#E6E6E6"/>
<path d="M294.696 252.614C298.653 257.628 299.266 263.729 296.066 266.24C292.866 268.751 287.066 266.721 283.108 261.705C281.499 259.723 280.39 257.385 279.873 254.888L263.376 233.432L271.9 226.948L288.811 247.875C291.124 248.963 293.142 250.588 294.696 252.614Z" fill="#A0616A"/>
<path d="M234.279 141.512C235.013 141.348 241.435 140.02 246.485 143.918C252.285 148.395 252.004 156.472 251.906 159.305C251.678 165.849 249.107 166.917 247.577 173.336C244.715 185.346 250.166 196.507 253.177 202.673C254.219 204.807 257.568 211.338 264.234 218.372C277.198 232.051 288.766 239.25 288.766 239.25L276.339 250.266C276.339 250.266 256.544 244.249 243.132 232.194C229.373 219.828 208.215 176.075 203.829 165.418C203.451 164.5 208.802 179.421 219.018 157.562C221.348 152.576 225.618 143.441 234.279 141.512Z" fill="#E6E6E6"/>
<path d="M404.666 476.919C396.768 478.127 390.99 483.17 391.761 488.183C392.532 493.196 399.56 496.28 407.461 495.071C410.624 494.631 413.636 493.442 416.243 491.604L449.646 486.067L447.417 472.899L414.089 477.602C411.048 476.627 407.817 476.393 404.666 476.919Z" fill="#FFB6B6"/>
<path d="M548.605 435.874L535.653 463.284L470.542 485.143L416.513 488.018L415.16 475.076L473.715 462.866L533.8 434.549L548.605 435.874Z" fill="#E6E6E6"/>
<path d="M428.516 539.948L416.888 569.281L401.84 559.049L410.732 528.351L428.516 539.948Z" fill="#FFB6B6"/>
<path d="M379.952 529.034L349.171 558.366L361.483 571.327L392.948 546.77L379.952 529.034Z" fill="#FFB6B6"/>
<path d="M554.374 433.531L554.032 431.144L546.166 415.795L520.173 422.617L524.961 443.764L554.374 433.531Z" fill="#FFB6B6"/>
<path d="M543.43 535.855L544.229 546.101C544.229 546.101 547.534 589.064 520.857 592.474C494.181 595.885 482.553 599.296 466.821 572.692L442.196 529.034L427.813 546.101L408.68 531.08C408.68 531.08 422.36 477.872 433.304 475.825C434.672 475.569 436.04 475.441 437.387 475.413C446.447 475.225 454.988 479.645 460.409 486.887L491.445 528.351L502.731 523.235L543.43 535.855Z" fill="#2F2E41"/>
<path d="M395.684 567.917L401.84 556.32L419.624 568.599C419.624 568.599 423.728 583.606 417.572 585.653C411.416 587.699 394.316 584.971 394.316 584.971C394.316 584.971 362.851 591.792 362.167 585.653C361.483 579.513 376.532 578.149 376.532 578.149L395.684 567.917Z" fill="#2F2E41"/>
<path d="M462.717 559.731L415.178 529.858L390.896 551.545L374.479 532.444C374.479 532.444 404.576 488.104 413.468 486.058C422.36 484.011 436.724 482.647 436.724 482.647L480.501 522.894L462.717 559.731Z" fill="#2F2E41"/>
<path d="M348.487 555.638L364.219 572.692L362.145 574.462C362.145 574.462 358.063 592.19 348.487 586.193C338.911 580.195 338.227 578.831 338.227 578.831C338.227 578.831 310.867 584.971 308.131 574.056C305.395 563.141 312.919 565.188 312.919 565.188L319.751 569.281L348.487 555.638Z" fill="#2F2E41"/>
<path d="M528.381 430.12C540.47 430.12 550.27 420.347 550.27 408.291C550.27 396.235 540.47 386.462 528.381 386.462C516.293 386.462 506.493 396.235 506.493 408.291C506.493 420.347 516.293 430.12 528.381 430.12Z" fill="#FFB6B6"/>
<path d="M523.251 439.33L554.716 429.779C554.716 429.779 567.028 458.43 564.976 471.391C562.924 484.352 544.229 546.101 544.229 546.101L502.731 523.235C502.731 523.235 502.047 509.592 499.995 503.453C497.943 497.313 491.445 478.554 505.809 462.864C520.173 447.174 523.251 439.33 523.251 439.33Z" fill="#E6E6E6"/>
<path d="M454 582.57C448.88 588.689 447.894 596.283 451.799 599.532C455.704 602.782 463.019 600.455 468.14 594.334C470.22 591.917 471.689 589.039 472.424 585.94L493.792 559.744L483.383 551.343L461.518 576.864C458.591 578.14 456.013 580.097 454 582.57Z" fill="#FFB6B6"/>
<path d="M547.386 453.092L554.823 482.471L518.423 540.579L481.265 577.824L469.221 567.859L506.696 521.357L535.102 461.44L547.386 453.092Z" fill="#E6E6E6"/>
<path d="M508.203 404.54C513.817 404.526 514.135 404.563 515.043 404.54C522.006 404.356 523.826 401.625 527.355 401.811C533.654 402.143 525.341 433.638 521.883 448.198C518.492 462.477 529.952 475.273 530.775 476.166C542.407 488.782 562.838 491.089 566.344 485.716C569.181 481.368 559.125 474.756 561.556 465.252C563.932 455.961 574.905 456.95 577.972 448.198C581.184 439.032 570.39 434.409 563.608 412.043C559.713 399.199 560.402 396.805 556.768 388.85C547.053 367.585 499.438 376.639 504.783 396.354C505.817 400.167 503.065 404.552 508.203 404.54Z" fill="#2F2E41"/>
<path d="M578.098 145.4H348.056C341.55 145.4 336.258 140.121 336.258 133.634V11.7662C336.258 5.27866 341.55 0 348.056 0H578.098C584.603 0 589.896 5.27865 589.896 11.7662V133.634C589.896 140.121 584.603 145.4 578.098 145.4Z" fill="white"/>
<path d="M578.098 145.4H348.056C341.55 145.4 336.258 140.121 336.258 133.634V11.7662C336.258 5.27866 341.55 0 348.056 0H578.098C584.603 0 589.896 5.27865 589.896 11.7662V133.634C589.896 140.121 584.603 145.4 578.098 145.4ZM348.056 1.96487C342.637 1.96487 338.228 6.36183 338.228 11.7662V133.634C338.228 139.038 342.637 143.435 348.056 143.435H578.098C583.516 143.435 587.925 139.038 587.925 133.634V11.7662C587.925 6.36183 583.517 1.96487 578.098 1.96487H348.056Z" fill="#3F3D56"/>
<path d="M560.343 14.7365C561.975 14.7365 563.298 13.417 563.298 11.7892C563.298 10.1615 561.975 8.84192 560.343 8.84192C558.711 8.84192 557.387 10.1615 557.387 11.7892C557.387 13.417 558.711 14.7365 560.343 14.7365Z" fill="#3F3D56"/>
<path d="M568.223 14.7365C569.855 14.7365 571.179 13.417 571.179 11.7892C571.179 10.1615 569.855 8.84192 568.223 8.84192C566.591 8.84192 565.268 10.1615 565.268 11.7892C565.268 13.417 566.591 14.7365 568.223 14.7365Z" fill="#3F3D56"/>
<path d="M576.104 14.7365C577.736 14.7365 579.059 13.417 579.059 11.7892C579.059 10.1615 577.736 8.84192 576.104 8.84192C574.472 8.84192 573.149 10.1615 573.149 11.7892C573.149 13.417 574.472 14.7365 576.104 14.7365Z" fill="#3F3D56"/>
<path d="M353.004 59.4371C352.189 59.4371 351.527 60.0982 351.527 60.9108C351.527 61.307 351.68 61.6735 351.959 61.9441C352.239 62.2309 352.607 62.3844 353.004 62.3844H574.134C574.949 62.3844 575.612 61.7234 575.612 60.9108C575.612 60.5145 575.458 60.1481 575.18 59.8775C574.899 59.5906 574.531 59.4371 574.134 59.4371H353.004Z" fill="#E6E6E6"/>
<path d="M546.551 58.9459V62.8756H353.004C352.462 62.8756 351.97 62.6595 351.615 62.296C351.251 61.9423 351.034 61.4511 351.034 60.9108C351.034 59.8301 351.921 58.9459 353.004 58.9459H546.551Z" fill="#6C63FF"/>
<path d="M571.671 51.5777H551.969C549.797 51.5777 548.029 49.8153 548.029 47.648C548.029 45.4807 549.797 43.7183 551.969 43.7183H571.671C573.844 43.7183 575.612 45.4807 575.612 47.648C575.612 49.8153 573.844 51.5777 571.671 51.5777Z" fill="#E6E6E6"/>
<path d="M442.624 30.9466H354.482C352.309 30.9466 350.542 29.1842 350.542 27.0169C350.542 24.8496 352.309 23.0872 354.482 23.0872H442.624C444.797 23.0872 446.564 24.8496 446.564 27.0169C446.564 29.1842 444.797 30.9466 442.624 30.9466Z" fill="#E6E6E6"/>
<path d="M353.004 103.647C352.189 103.647 351.527 104.308 351.527 105.12C351.527 105.516 351.68 105.883 351.959 106.154C352.239 106.44 352.607 106.594 353.004 106.594H574.134C574.949 106.594 575.612 105.933 575.612 105.12C575.612 104.724 575.458 104.358 575.18 104.087C574.899 103.8 574.531 103.647 574.134 103.647H353.004Z" fill="#E6E6E6"/>
<path d="M470.699 103.155V107.085H353.004C352.462 107.085 351.97 106.869 351.615 106.505C351.251 106.152 351.034 105.661 351.034 105.12C351.034 104.04 351.921 103.155 353.004 103.155H470.699Z" fill="#6C63FF"/>
<path d="M571.671 95.7871H551.969C549.797 95.7871 548.029 94.0247 548.029 91.8574C548.029 89.6901 549.797 87.9277 551.969 87.9277H571.671C573.844 87.9277 575.612 89.6901 575.612 91.8574C575.612 94.0247 573.844 95.7871 571.671 95.7871Z" fill="#E6E6E6"/>
</g>
<defs>
<clipPath id="clip0_56_95">
<rect width="595" height="601" fill="white" transform="translate(94)"/>
</clipPath>
</defs>
</svg>
