<svg width="695" height="649" viewBox="0 0 695 649" fill="none" xmlns="http://www.w3.org/2000/svg">
<path d="M597.135 112.83C651.501 173.642 689.342 244.561 694.393 320.619C699.53 396.762 671.877 477.873 617.512 540.398C563.147 602.923 482.07 646.862 398.767 648.917C315.55 651.059 230.192 611.402 149.886 548.878C69.6651 486.353 -5.5043 400.959 0.317477 321.39C6.22487 241.906 93.0379 168.161 173.344 107.349C253.565 46.5369 327.279 -1.34171 399.537 0.0286984C471.882 1.31346 542.77 52.0186 597.135 112.83Z" fill="#442358"/>
<g clip-path="url(#clip0_56_58)">
<path d="M594.447 383.447H32.2991C27.7648 383.442 23.4177 381.638 20.2114 378.431C17.0052 375.224 15.2017 370.875 15.1965 366.34V49.2861H611.549V366.34C611.544 370.875 609.741 375.224 606.534 378.431C603.328 381.638 598.981 383.442 594.447 383.447Z" fill="#E6E6E6"/>
<path d="M572.076 350.701H54.6701C52.3342 350.698 50.0948 349.769 48.443 348.117C46.7913 346.465 45.8622 344.225 45.8596 341.888V90.8437C45.8622 88.5072 46.7913 86.2672 48.443 84.615C50.0948 82.9629 52.3342 82.0335 54.6701 82.0309H572.076C574.411 82.0335 576.651 82.9628 578.303 84.615C579.954 86.2671 580.883 88.5072 580.886 90.8437V341.888C580.883 344.225 579.954 346.465 578.303 348.117C576.651 349.769 574.411 350.698 572.076 350.701Z" fill="white"/>
<path d="M612.746 60.8423H14V47.1072C14.0051 42.5717 15.8086 38.2234 19.0149 35.0162C22.2211 31.8091 26.5683 30.0051 31.1026 30H595.643C600.178 30.0051 604.525 31.8091 607.731 35.0162C610.937 38.2234 612.741 42.5717 612.746 47.1072V60.8423Z" fill="#6C63FF"/>
<path d="M177.057 254.58H84.9664C82.6306 254.578 80.3911 253.648 78.7394 251.996C77.0877 250.344 76.1586 248.104 76.156 245.767V185.211C76.1586 182.875 77.0877 180.635 78.7394 178.983C80.3911 177.33 82.6306 176.401 84.9664 176.398H177.057C179.393 176.401 181.632 177.33 183.284 178.983C184.935 180.635 185.865 182.875 185.867 185.211V245.767C185.865 248.104 184.935 250.344 183.284 251.996C181.632 253.648 179.393 254.578 177.057 254.58Z" fill="#E6E6E6"/>
<path d="M545.689 186.202H254.722C253.423 186.202 252.176 185.686 251.257 184.766C250.338 183.847 249.822 182.6 249.822 181.3C249.822 180 250.338 178.753 251.257 177.834C252.176 176.915 253.423 176.398 254.722 176.398H545.689C546.989 176.398 548.235 176.915 549.154 177.834C550.074 178.753 550.59 180 550.59 181.3C550.59 182.6 550.074 183.847 549.154 184.766C548.235 185.686 546.989 186.202 545.689 186.202Z" fill="#E6E6E6"/>
<path d="M545.69 221.267H254.722C253.423 221.267 252.176 220.751 251.258 219.832C250.339 218.913 249.822 217.666 249.822 216.366C249.822 215.066 250.339 213.819 251.258 212.9C252.176 211.981 253.423 211.464 254.722 211.464H545.69C546.989 211.464 548.236 211.981 549.155 212.9C550.074 213.819 550.59 215.066 550.59 216.366C550.59 217.666 550.074 218.913 549.155 219.832C548.236 220.751 546.989 221.267 545.69 221.267Z" fill="#E6E6E6"/>
<path d="M545.689 256.333H254.722C253.423 256.333 252.176 255.817 251.257 254.898C250.338 253.978 249.822 252.732 249.822 251.432C249.822 250.132 250.338 248.885 251.257 247.965C252.176 247.046 253.423 246.53 254.722 246.53H545.689C546.989 246.53 548.235 247.046 549.154 247.965C550.074 248.885 550.59 250.132 550.59 251.432C550.59 252.732 550.074 253.978 549.154 254.898C548.235 255.817 546.989 256.333 545.689 256.333Z" fill="#E6E6E6"/>
<path d="M448.871 606.784H436.163L430.118 557.756H448.873L448.871 606.784Z" fill="#A0616A"/>
<path d="M427.086 603.151H451.594V618.586H411.656C411.656 616.559 412.055 614.552 412.83 612.68C413.606 610.807 414.742 609.105 416.175 607.672C417.608 606.239 419.309 605.102 421.181 604.326C423.053 603.551 425.06 603.151 427.086 603.151Z" fill="#2F2E41"/>
<path d="M501.733 606.784H489.026L482.981 557.756H501.736L501.733 606.784Z" fill="#A0616A"/>
<path d="M479.949 603.151H504.456V618.586H464.518C464.518 616.559 464.917 614.552 465.693 612.68C466.468 610.807 467.605 609.105 469.038 607.672C470.471 606.239 472.172 605.102 474.044 604.326C475.916 603.551 477.923 603.151 479.949 603.151Z" fill="#2F2E41"/>
<path d="M500.115 595.515H487.18C486.011 595.509 484.887 595.067 484.028 594.275C483.168 593.484 482.634 592.4 482.532 591.236L471.569 459.149C471.537 458.765 471.364 458.406 471.083 458.143C470.802 457.88 470.433 457.73 470.048 457.723C469.662 457.716 469.288 457.853 468.998 458.106C468.708 458.359 468.522 458.711 468.476 459.094L452.732 591.402C452.597 592.535 452.051 593.58 451.197 594.338C450.344 595.096 449.242 595.515 448.101 595.515H432.217C430.985 595.513 429.804 595.025 428.931 594.155C428.058 593.286 427.563 592.107 427.555 590.875C427.52 582.565 427.463 574.193 427.407 565.821C426.902 491.252 426.381 414.145 441.947 383.937L442.089 383.662L498.261 382.701L498.402 383.01C515.397 420.158 510.239 503.149 505.25 583.406L504.77 591.139C504.695 592.324 504.172 593.435 503.307 594.248C502.443 595.06 501.302 595.514 500.115 595.515Z" fill="#2F2E41"/>
<path d="M473.504 283.42C487.565 283.42 498.962 272.019 498.962 257.955C498.962 243.891 487.565 232.49 473.504 232.49C459.444 232.49 448.046 243.891 448.046 257.955C448.046 272.019 459.444 283.42 473.504 283.42Z" fill="#A0616A"/>
<path d="M438.796 388.343L439.498 359.146L434.448 336.366C433.172 330.725 433.246 324.863 434.665 319.256C436.083 313.649 438.806 308.457 442.61 304.103C446.312 299.77 450.985 296.373 456.248 294.19C461.512 292.007 467.216 291.1 472.897 291.541C473.264 291.57 473.632 291.6 474 291.634C478.854 292.071 483.57 293.481 487.867 295.78C492.165 298.079 495.955 301.22 499.013 305.016C502.134 308.833 504.456 313.24 505.839 317.973C507.221 322.707 507.637 327.67 507.061 332.568L500.951 385.98L438.796 388.343Z" fill="#6C63FF"/>
<path d="M417.171 440.67C418.372 439.732 419.352 438.542 420.044 437.183C420.735 435.825 421.121 434.332 421.173 432.809C421.225 431.285 420.943 429.769 420.346 428.367C419.749 426.964 418.851 425.71 417.717 424.692L432.051 390.529L413.133 394.083L402.422 425.98C400.839 427.999 400.051 430.529 400.208 433.09C400.365 435.652 401.456 438.067 403.274 439.877C405.091 441.688 407.51 442.769 410.072 442.915C412.633 443.061 415.159 442.262 417.171 440.67Z" fill="#A0616A"/>
<path d="M525.325 444.765C524.179 443.76 523.268 442.516 522.654 441.121C522.041 439.725 521.741 438.212 521.776 436.689C521.811 435.165 522.179 433.667 522.855 432.301C523.531 430.935 524.498 429.734 525.688 428.782L513.321 393.858L532.005 398.483L540.885 430.938C542.351 433.044 542.993 435.615 542.691 438.163C542.389 440.711 541.162 443.06 539.244 444.764C537.326 446.469 534.85 447.41 532.285 447.41C529.719 447.41 527.243 446.469 525.325 444.765Z" fill="#A0616A"/>
<path d="M419.446 423.929C418.789 423.929 418.139 423.79 417.54 423.522L406.635 418.636C405.586 418.167 404.747 417.327 404.279 416.278C403.811 415.228 403.748 414.042 404.101 412.949L422.394 356.112L429.463 313.292C429.714 311.771 430.269 310.315 431.094 309.013C431.919 307.71 432.997 306.587 434.265 305.709C435.533 304.832 436.964 304.219 438.474 303.906C439.984 303.594 441.541 303.588 443.053 303.889C444.565 304.191 446 304.794 447.275 305.662C448.549 306.529 449.636 307.645 450.47 308.941C451.305 310.238 451.87 311.689 452.133 313.209C452.395 314.728 452.349 316.285 451.998 317.787L441.254 363.709L423.908 420.624C423.617 421.581 423.026 422.419 422.223 423.014C421.419 423.609 420.446 423.93 419.446 423.929Z" fill="#6C63FF"/>
<path d="M523.474 423.929C522.474 423.93 521.5 423.609 520.697 423.014C519.894 422.418 519.303 421.581 519.012 420.624L501.675 363.741L490.922 317.786C490.57 316.285 490.524 314.728 490.787 313.208C491.049 311.689 491.615 310.238 492.449 308.941C493.284 307.644 494.371 306.529 495.645 305.661C496.919 304.793 498.355 304.191 499.867 303.889C501.379 303.587 502.936 303.593 504.446 303.906C505.955 304.218 507.387 304.832 508.655 305.709C509.923 306.586 511.001 307.71 511.826 309.012C512.651 310.315 513.206 311.77 513.457 313.292L520.544 356.187L538.819 412.948C539.172 414.042 539.108 415.228 538.641 416.277C538.173 417.327 537.334 418.167 536.285 418.636L525.38 423.522C524.78 423.79 524.131 423.929 523.474 423.929Z" fill="#6C63FF"/>
<path d="M474.028 229.806C466.953 226.741 457.71 230.555 454.854 237.72C453.077 242.178 453.62 247.207 454.599 251.906C455.579 256.605 456.976 261.295 456.826 266.092C456.676 270.89 454.61 275.982 450.355 278.202C447.813 279.528 444.839 279.675 442.083 280.466C439.326 281.257 436.482 283.106 436.085 285.947C435.484 290.244 440.695 293.517 440.661 297.855C440.624 302.453 434.88 305.182 434.136 309.719C434.008 311.047 434.219 312.386 434.75 313.61C435.281 314.835 436.114 315.904 437.172 316.717C439.305 318.32 441.728 319.493 444.307 320.173C464.155 326.518 485.287 327.723 505.727 323.673C509.788 322.863 513.968 321.767 517.124 319.085C520.28 316.402 522.085 311.706 520.271 307.982C517.551 302.399 508.917 302.081 505.908 296.649C504.103 293.39 504.934 289.39 505.314 285.684C506.296 276.114 508.56 264.934 506.183 255.612C504.036 247.19 499.373 236.306 492.709 230.729C487.927 226.726 478.797 228.55 472.685 229.784L474.028 229.806Z" fill="#2F2E41"/>
</g>
<defs>
<clipPath id="clip0_56_58">
<rect width="668" height="590" fill="white" transform="translate(14 30)"/>
</clipPath>
</defs>
</svg>
