<svg width="91" height="91" viewBox="0 0 91 91" fill="none" xmlns="http://www.w3.org/2000/svg">
<path d="M91 45.5C91 70.629 70.629 91 45.5 91C20.371 91 0 70.629 0 45.5C0 20.371 20.371 0 45.5 0C70.629 0 91 20.371 91 45.5Z" fill="#AB004A"/>
<path d="M71.846 48.2808C73.3806 46.7427 73.3806 44.2449 71.846 42.7068L52.2031 23.0193C50.6685 21.4812 48.1763 21.4812 46.6417 23.0193C45.1071 24.5574 45.1071 27.0552 46.6417 28.5933L59.5937 41.5625H21.9286C19.7556 41.5625 18 43.322 18 45.5C18 47.6779 19.7556 49.4375 21.9286 49.4375H59.5815L46.654 62.4066C45.1194 63.9447 45.1194 66.4425 46.654 67.9806C48.1886 69.5187 50.6808 69.5187 52.2154 67.9806L71.8583 48.2931L71.846 48.2808Z" fill="black"/>
</svg>
