<svg width="91" height="91" viewBox="0 0 91 91" fill="none" xmlns="http://www.w3.org/2000/svg">
<path d="M-3.97774e-06 45.5C-6.17458e-06 20.3711 20.371 6.17458e-06 45.5 3.97774e-06C70.6289 1.78089e-06 91 20.371 91 45.5C91 70.629 70.629 91 45.5 91C20.371 91 -1.78089e-06 70.629 -3.97774e-06 45.5Z" fill="#AB004A"/>
<g clip-path="url(#clip0_18_15)">
<path d="M19.154 42.7192C17.6194 44.2573 17.6194 46.7551 19.154 48.2932L38.7969 67.9807C40.3315 69.5188 42.8237 69.5188 44.3583 67.9807C45.8929 66.4426 45.8929 63.9448 44.3583 62.4067L31.4063 49.4376L69.0714 49.4375C71.2444 49.4375 73 47.678 73 45.5C73 43.3221 71.2444 41.5625 69.0714 41.5625L31.4185 41.5626L44.346 28.5934C45.8806 27.0553 45.8806 24.5575 44.346 23.0194C42.8114 21.4813 40.3192 21.4813 38.7846 23.0194L19.1417 42.7069L19.154 42.7192Z" fill="black"/>
</g>
<defs>
<clipPath id="clip0_18_15">
<rect width="55" height="63" fill="white" transform="translate(73 77) rotate(180)"/>
</clipPath>
</defs>
</svg>
