<svg width="1920" height="1080" viewBox="0 0 1920 1080" fill="none" xmlns="http://www.w3.org/2000/svg">
<g clip-path="url(#clip0_56_175)">
<path d="M1920 0H0V1080H1920V0Z" fill="#001220"/>
<path d="M1164 1080C1247.2 1011.8 1330.4 943.6 1354.6 845.8C1378.8 748 1344 620.8 1385.4 545.4C1426.8 470.2 1544.2 446.8 1646 418.6C1747.8 390.2 1833.8 357.2 1920 324V1080H1164Z" fill="#442358"/>
<path d="M1542 1080C1583.6 1045.8 1625.2 1011.8 1637.2 962.8C1649.4 914 1632 850.4 1652.8 812.8C1673.4 775 1732.2 763.4 1783 749.2C1833.8 735.2 1877 718.6 1920 702V1080H1542Z" fill="#AB004A"/>
<path d="M756 0C738 102.2 719.8 204.4 667 276.2C614.2 348.2 526.8 389.8 463.8 463.8C401 538 362.6 644.4 289.4 698.4C216 752.6 108 754.2 0 756V0H756Z" fill="#442358"/>
<path d="M378 0C369 51 360 102.2 333.6 138.2C307.2 174.2 263.4 195 232 232C200.4 269 181.2 322.2 144.6 349.2C108 376.2 54 377.2 0 378V0H378Z" fill="#AB004A"/>
</g>
<defs>
<clipPath id="clip0_56_175">
<rect width="1920" height="1080" fill="white"/>
</clipPath>
</defs>
</svg>
