<svg id="visual" viewBox="0 0 540 960" width="540" height="960" xmlns="http://www.w3.org/2000/svg" xmlns:xlink="http://www.w3.org/1999/xlink" version="1.1"><rect x="0" y="0" width="540" height="960" fill="#001220"></rect><defs><linearGradient id="grad1_0" x1="0%" y1="100%" x2="100%" y2="0%"><stop offset="30%" stop-color="#ab004a" stop-opacity="1"></stop><stop offset="70%" stop-color="#ab004a" stop-opacity="1"></stop></linearGradient></defs><defs><linearGradient id="grad1_1" x1="0%" y1="100%" x2="100%" y2="0%"><stop offset="30%" stop-color="#ab004a" stop-opacity="1"></stop><stop offset="70%" stop-color="#001220" stop-opacity="1"></stop></linearGradient></defs><defs><linearGradient id="grad2_0" x1="0%" y1="100%" x2="100%" y2="0%"><stop offset="30%" stop-color="#ab004a" stop-opacity="1"></stop><stop offset="70%" stop-color="#ab004a" stop-opacity="1"></stop></linearGradient></defs><defs><linearGradient id="grad2_1" x1="0%" y1="100%" x2="100%" y2="0%"><stop offset="30%" stop-color="#001220" stop-opacity="1"></stop><stop offset="70%" stop-color="#ab004a" stop-opacity="1"></stop></linearGradient></defs><g transform="translate(540, 960)"><path d="M-324 0C-295.6 -36 -267.2 -72 -244.8 -101.4C-222.5 -130.8 -206.2 -153.5 -189.5 -189.5C-172.8 -225.5 -155.6 -274.7 -124 -299.3C-92.3 -324 -46.2 -324 0 -324L0 0Z" fill="#442358"></path><path d="M-162 0C-147.8 -18 -133.6 -36 -122.4 -50.7C-111.2 -65.4 -103.1 -76.8 -94.8 -94.8C-86.4 -112.7 -77.8 -137.4 -62 -149.7C-46.2 -162 -23.1 -162 0 -162L0 0Z" fill="#ab004a"></path></g><g transform="translate(0, 0)"><path d="M324 0C323.9 46.3 323.7 92.7 299.3 124C274.9 155.3 226.3 171.7 191.6 191.6C157 211.6 136.4 235.1 106.8 257.8C77.2 280.4 38.6 302.2 0 324L0 0Z" fill="#442358"></path><path d="M162 0C161.9 23.2 161.9 46.3 149.7 62C137.5 77.7 113.1 85.8 95.8 95.8C78.5 105.8 68.2 117.6 53.4 128.9C38.6 140.2 19.3 151.1 0 162L0 0Z" fill="#ab004a"></path></g></svg>